<svg width="466" height="207" viewBox="0 0 466 207" fill="none" xmlns="http://www.w3.org/2000/svg">
<g clip-path="url(#clip0_8_5)">
<path d="M187.384 58.8425L189.41 59.9846L205.059 83.9356H194.769L178.556 58.5181H174.989V83.9356H166.88V26.91H186.335C194.445 26.91 200.199 29.1877 203.04 34.1582C204.341 36.4359 205.066 39.2911 205.066 42.7887C205.066 45.8839 204.419 48.4082 203.202 50.5301C200.522 55.1697 194.684 57.376 187.39 57.6161V58.8425H187.384ZM174.977 34.6449V51.179H187.461C191.267 51.179 194.186 49.959 195.649 47.4283C196.38 46.2084 196.788 44.6575 196.788 42.8665C196.788 41.0691 196.464 39.6869 195.817 38.5513C194.277 35.8584 191.358 34.6384 187.461 34.6384L174.977 34.6449Z" fill="#E8EBDE"/>
<path d="M246.974 66.5774H218.276C218.515 69.5105 219.331 71.9503 220.625 73.91C222.489 76.603 225.408 78.1474 229.706 78.1474C234.327 78.1474 237.815 76.0319 239.194 72.1191H246.896C245.517 79.6139 238.54 85.0776 229.867 85.0776C222.243 85.0776 217.059 82.4691 213.816 77.745C211.467 74.3253 210.25 69.9193 210.25 64.6307C210.25 59.3422 211.868 54.5273 214.224 51.1076C217.544 46.2992 222.813 43.6971 228.974 43.6971C240.404 43.6971 246.967 50.9454 246.967 63.3329V66.5904L246.974 66.5774ZM238.702 60.2247C238.463 53.8719 234.974 50.4522 228.974 50.4522C225.654 50.4522 222.489 52.0809 220.541 54.8518C219.57 56.3183 218.916 58.1092 218.515 60.2247H238.702Z" fill="#E8EBDE"/>
<path d="M257.426 77.8229C255.077 74.4032 253.86 69.8349 253.86 64.3841C253.86 58.9334 255.077 54.3651 257.426 50.9454C260.591 46.3057 265.536 43.6971 271.536 43.6971C278.674 43.6971 283.619 47.6879 285.807 55.4228H287.024L284.998 44.8327V26.91H292.7V83.9356H284.998L287.024 73.3455H285.807C283.619 81.0869 278.668 85.0712 271.536 85.0712C265.536 85.0712 260.591 82.4626 257.426 77.8229ZM282.642 73.6699C284.266 71.3923 285.153 68.2127 285.153 64.3841C285.153 60.5556 284.26 57.376 282.642 55.0983C280.616 52.1653 277.458 50.6209 273.477 50.6209C269.497 50.6209 266.338 52.1653 264.312 55.0983C262.688 57.376 261.801 60.5556 261.801 64.3841C261.801 68.2127 262.694 71.3923 264.312 73.6699C266.338 76.603 269.497 78.1474 273.477 78.1474C277.458 78.1474 280.616 76.603 282.642 73.6699Z" fill="#E8EBDE"/>
<path d="M306.479 83.9291V26.91H339.559V34.6449H314.589V51.4256H338.75V59.1605H314.589V76.1812H339.559V83.9226H306.479V83.9291Z" fill="#82BB2C"/>
<path d="M205.053 158.644L198.166 138.69H176.679L169.792 158.644H161.197L181.306 101.618H193.552L213.661 158.644H205.066H205.053ZM179.268 130.942H195.565L188.594 110.735L188.031 106.498H186.814L186.251 110.735L179.268 130.942Z" fill="#E8EBDE"/>
<path d="M221.758 158.644V119.541H229.46L227.434 130.131H228.651C230.676 122.636 234.411 118.405 240.896 118.405C246.734 118.405 251.679 122.396 251.679 130.131H252.896C254.921 121.501 259.62 118.405 265.465 118.405C273.976 118.405 278.513 123.7 278.513 133.882V158.644H270.565V135.426C270.565 128.995 268.047 125.569 263.186 125.569C257.187 125.569 253.86 130.378 253.86 137.95V158.644H246.158V135.433C246.158 129.002 242.993 125.576 238.618 125.576C232.618 125.576 229.453 130.384 229.453 137.957V158.65H221.751L221.758 158.644Z" fill="#E8EBDE"/>
<path d="M324.155 141.292H295.457C295.696 144.225 296.512 146.665 297.813 148.625C299.677 151.318 302.596 152.862 306.893 152.862C311.514 152.862 315.003 150.747 316.382 146.834H324.083C322.705 154.329 315.734 159.786 307.055 159.786C299.431 159.786 294.247 157.177 291.004 152.453C288.655 149.034 287.438 144.627 287.438 139.339C287.438 134.05 289.056 129.235 291.412 125.816C294.732 121.007 300 118.405 306.162 118.405C317.592 118.405 324.155 125.654 324.155 138.035V141.292ZM315.883 134.939C315.644 128.587 312.155 125.167 306.155 125.167C302.835 125.167 299.67 126.802 297.722 129.566C296.751 131.026 296.098 132.824 295.696 134.939H315.883Z" fill="#E8EBDE"/>
<path d="M333.876 158.644V119.541H341.578L339.313 130.786H340.614C342.154 122.48 346.536 118.405 352.289 118.405C359.668 118.405 363.156 123.214 363.156 131.195V139.261H355.131V133.888C355.131 128.184 353.189 125.738 349.131 125.738C344.186 125.738 341.591 129.975 341.591 137.879V158.65L333.876 158.644Z" fill="#E8EBDE"/>
<path d="M371.9 158.644V119.541H379.602V158.644H371.9Z" fill="#E8EBDE"/>
<path d="M392.896 152.453C390.547 149.034 389.33 144.627 389.33 139.339C389.33 134.05 390.709 129.235 393.058 125.816C396.378 121.007 401.815 118.405 408.624 118.405C418.753 118.405 426.053 124.758 426.299 133.804H418.597C417.866 128.431 414.3 125.336 408.63 125.336C404.734 125.336 401.744 126.88 399.789 129.651C398.165 132.013 397.278 135.186 397.278 139.261C397.278 143.336 398.093 146.269 399.705 148.631C401.569 151.324 404.488 152.869 408.222 152.869C413.73 152.869 417.057 149.851 417.788 144.4H425.49C425.251 153.608 418.19 159.799 407.977 159.799C401.33 159.799 396.139 157.19 392.896 152.466V152.453Z" fill="#E8EBDE"/>
<path d="M466.188 132.98V158.644H458.24L460.104 148.054H458.887C456.945 155.957 452.641 159.779 445.431 159.779C441.949 159.779 438.946 158.559 436.836 156.438C434.895 154.484 433.833 151.791 433.833 148.612C433.833 145.192 434.81 142.583 436.752 140.624C439.108 138.262 442.752 136.957 447.535 136.711L458.479 136.055V132.96C458.479 128.321 455.638 125.303 449.638 125.303C441.05 125.303 440.965 131.902 440.965 132.714V133.116H433.018V132.714C433.018 131.734 433.095 118.373 449.722 118.373C460.667 118.373 466.175 123.83 466.175 132.954L466.188 132.98ZM458.486 142.188L448.68 143.167C446.085 143.408 444.221 144.063 443.082 145.205C442.189 146.1 441.781 147.158 441.781 148.54C441.781 149.845 442.182 150.818 442.998 151.636C443.975 152.615 445.431 153.102 447.295 153.102C454.758 153.109 458.24 146.503 458.486 142.188Z" fill="#E8EBDE"/>
<path d="M44.6065 11.7322C42.7555 11.5245 41.0921 12.8677 40.885 14.7301C40.6779 16.5924 42.0177 18.2601 43.8687 18.4678C45.7198 18.6754 47.3831 17.3322 47.5902 15.4698C47.7973 13.6075 46.4576 11.9398 44.6065 11.7322Z" fill="#82BB2C"/>
<path d="M24.9569 2.53721C23.1058 2.32956 21.4425 3.67279 21.2354 5.53514C21.0282 7.39749 22.368 9.06517 24.219 9.27282C26.0701 9.48047 27.7335 8.13724 27.9341 6.27489C28.1477 4.41254 26.8079 2.74486 24.9569 2.53721Z" fill="#82BB2C"/>
<path d="M3.54672 0.175204C1.70214 -0.0259559 0.0323052 1.31727 -0.168334 3.17314C-0.375445 5.03549 0.964305 6.70317 2.81536 6.91081C4.66642 7.11846 6.32978 5.77524 6.53042 3.91288C6.73753 2.05702 5.40425 0.382853 3.54672 0.175204Z" fill="#82BB2C"/>
<path d="M49.1694 33.3082C47.3183 33.1005 45.655 34.4438 45.4479 36.3061C45.2408 38.1685 46.5805 39.8361 48.4316 40.0438C50.2826 40.2514 51.946 38.9082 52.1531 37.0459C52.3537 35.1835 51.0205 33.5158 49.1694 33.3082Z" fill="#82BB2C"/>
<path d="M55.3698 40.829C53.5188 40.6213 51.8554 41.9645 51.6483 43.8269C51.4412 45.6892 52.781 47.3569 54.632 47.5646C56.4831 47.7722 58.1464 46.429 58.3535 44.5666C58.5607 42.7043 57.2209 41.0366 55.3698 40.829Z" fill="#82BB2C"/>
<path d="M59.3761 69.4975C61.2272 69.7051 62.8905 68.3619 63.0976 66.4996C63.3047 64.6372 61.965 62.9695 60.1139 62.7619C58.2629 62.5542 56.5995 63.8975 56.3924 65.7598C56.1918 67.6222 57.5251 69.2898 59.3761 69.4975Z" fill="#82BB2C"/>
<path d="M80.3267 43.9437C82.1778 44.1513 83.8411 42.8081 84.0482 40.9458C84.2554 39.0834 82.9156 37.4157 81.0645 37.2081C79.2135 37.0004 77.5501 38.3437 77.343 40.206C77.1359 42.0684 78.4757 43.7361 80.3267 43.9437Z" fill="#82BB2C"/>
<path d="M73.7962 126.945C75.6472 127.153 77.3106 125.809 77.5177 123.947C77.7248 122.085 76.385 120.417 74.534 120.209C72.6829 120.002 71.0196 121.345 70.8125 123.207C70.6054 125.076 71.9386 126.744 73.7962 126.945Z" fill="#82BB2C"/>
<path d="M96.9798 108.419C98.8308 108.626 100.494 107.283 100.695 105.421C100.902 103.558 99.5622 101.891 97.7111 101.683C95.8601 101.475 94.1967 102.819 93.9896 104.681C93.7954 106.543 95.1287 108.211 96.9798 108.419Z" fill="#82BB2C"/>
<path d="M128.629 77.1805C130.48 77.3881 132.143 76.0449 132.344 74.1826C132.551 72.3202 131.211 70.6525 129.36 70.4449C127.509 70.2372 125.846 71.5805 125.639 73.4428C125.438 75.3052 126.778 76.9729 128.629 77.1805Z" fill="#82BB2C"/>
<path d="M101.633 52.4443C103.484 52.652 105.148 51.3087 105.355 49.4464C105.562 47.584 104.222 45.9164 102.371 45.7087C100.52 45.5011 98.8567 46.8443 98.656 48.7066C98.4425 50.569 99.7822 52.2367 101.633 52.4443Z" fill="#82BB2C"/>
<path d="M10.7567 1.75204C9.33284 1.5963 8.04486 2.62806 7.88953 4.06862C7.7342 5.5027 8.76328 6.79402 10.1936 6.94975C11.6175 7.10549 12.9055 6.07373 13.0608 4.63317C13.2162 3.19261 12.1871 1.90778 10.7567 1.75204Z" fill="#82BB2C"/>
<path d="M17.0866 7.70897C18.5105 7.86471 19.7984 6.83295 19.9538 5.39239C20.1091 3.95182 19.08 2.66699 17.6497 2.51126C16.2258 2.35552 14.9378 3.38728 14.7825 4.82784C14.6271 6.2684 15.6562 7.55323 17.0866 7.70897Z" fill="#82BB2C"/>
<path d="M10.006 8.66934C8.5821 8.5136 7.29413 9.54536 7.1388 10.9859C6.98346 12.42 8.01255 13.7113 9.44291 13.8671C10.8668 14.0228 12.1548 12.991 12.3101 11.5505C12.4654 10.1164 11.4364 8.82508 10.006 8.66934Z" fill="#82BB2C"/>
<path d="M30.6976 10.9535C29.2738 10.7977 27.9858 11.8295 27.8304 13.2701C27.6751 14.7041 28.7042 15.9955 30.1346 16.1512C31.5584 16.3069 32.8464 15.2752 33.0018 13.8346C33.1571 12.407 32.128 11.1092 30.6976 10.9535Z" fill="#82BB2C"/>
<path d="M29.9404 17.8838C28.5165 17.728 27.2286 18.7598 27.0732 20.2003C26.9179 21.6409 27.947 22.9257 29.3774 23.0815C30.8077 23.2372 32.0892 22.2055 32.2446 20.7649C32.3999 19.3243 31.3708 18.0395 29.9404 17.8838Z" fill="#82BB2C"/>
<path d="M49.3053 32.2959C50.7292 32.4516 52.0172 31.4199 52.1725 29.9793C52.3279 28.5452 51.2988 27.2539 49.8684 27.0982C48.4445 26.9424 47.1566 27.9742 47.0012 29.4148C46.8459 30.8424 47.875 32.1402 49.3053 32.2959Z" fill="#82BB2C"/>
<path d="M76.191 16.2226C77.6148 16.3783 78.9028 15.3466 79.0581 13.906C79.2135 12.4719 78.1844 11.1806 76.754 11.0249C75.3301 10.8691 74.0422 11.9009 73.8868 13.3414C73.7315 14.7755 74.7606 16.0668 76.191 16.2226Z" fill="#82BB2C"/>
<path d="M82.7538 16.6833C84.1777 16.839 85.4656 15.8073 85.621 14.3667C85.7763 12.9261 84.7472 11.6413 83.3169 11.4856C81.893 11.3298 80.605 12.3616 80.4497 13.8022C80.2943 15.2362 81.3169 16.5276 82.7538 16.6833Z" fill="#82BB2C"/>
<path d="M61.5832 47.6749C63.0071 47.8306 64.295 46.7989 64.4504 45.3583C64.6057 43.9177 63.5766 42.6329 62.1463 42.4772C60.7159 42.3214 59.4344 43.3532 59.2791 44.7938C59.1237 46.2278 60.1528 47.5192 61.5832 47.6749Z" fill="#82BB2C"/>
<path d="M60.0686 61.5355C61.4925 61.6912 62.7805 60.6594 62.9358 59.2189C63.0912 57.7783 62.0621 56.4935 60.6317 56.3377C59.2078 56.182 57.9199 57.2138 57.7645 58.6543C57.6092 60.0819 58.6383 61.3797 60.0686 61.5355Z" fill="#82BB2C"/>
<path d="M115.82 60.3025C117.244 60.4583 118.532 59.4265 118.688 57.986C118.843 56.5519 117.814 55.2606 116.383 55.1048C114.96 54.9491 113.672 55.9808 113.516 57.4214C113.361 58.8555 114.39 60.1468 115.82 60.3025Z" fill="#82BB2C"/>
<path d="M115.251 67.6287C116.675 67.7844 117.963 66.7526 118.118 65.3121C118.273 63.8715 117.244 62.5867 115.814 62.4309C114.39 62.2752 113.102 63.307 112.947 64.7475C112.785 66.1816 113.814 67.4729 115.251 67.6287Z" fill="#82BB2C"/>
<path d="M122.61 68.1413C124.034 68.297 125.322 67.2653 125.477 65.8247C125.632 64.3841 124.603 63.0993 123.173 62.9436C121.749 62.7878 120.461 63.8196 120.306 65.2602C120.15 66.7007 121.179 67.9855 122.61 68.1413Z" fill="#82BB2C"/>
<path d="M107.588 73.7932C109.012 73.949 110.3 72.9172 110.455 71.4766C110.61 70.0426 109.581 68.7513 108.151 68.5955C106.727 68.4398 105.439 69.4715 105.284 70.9121C105.128 72.3462 106.157 73.6375 107.588 73.7932Z" fill="#82BB2C"/>
<path d="M106.837 80.7235C108.261 80.8792 109.549 79.8475 109.704 78.4069C109.859 76.9729 108.83 75.6815 107.4 75.5258C105.976 75.3701 104.688 76.4018 104.533 77.8424C104.378 79.27 105.407 80.5678 106.837 80.7235Z" fill="#82BB2C"/>
<path d="M147.463 92.2221C148.887 92.3778 150.175 91.3461 150.33 89.9055C150.486 88.4649 149.456 87.1801 148.026 87.0244C146.602 86.8686 145.314 87.9004 145.159 89.3409C145.004 90.775 146.026 92.0663 147.463 92.2221Z" fill="#82BB2C"/>
<path d="M146.706 99.1588C148.13 99.3146 149.418 98.2828 149.573 96.8423C149.728 95.4082 148.699 94.1169 147.269 93.9611C145.845 93.8054 144.557 94.8371 144.402 96.2777C144.24 97.7053 145.269 98.9966 146.706 99.1588Z" fill="#82BB2C"/>
<path d="M97.6593 100.755C99.0832 100.911 100.371 99.8791 100.527 98.4386C100.682 97.0045 99.6528 95.7132 98.2224 95.5574C96.7985 95.4017 95.5106 96.4335 95.3552 97.874C95.1999 99.3081 96.229 100.599 97.6593 100.755Z" fill="#82BB2C"/>
<path d="M118.357 103.039C119.781 103.195 121.069 102.163 121.225 100.723C121.38 99.2821 120.351 97.9973 118.921 97.8416C117.497 97.6858 116.209 98.7176 116.053 100.158C115.898 101.586 116.927 102.877 118.357 103.039Z" fill="#82BB2C"/>
<path d="M125.257 103.799C126.681 103.954 127.969 102.922 128.124 101.482C128.279 100.041 127.25 98.7565 125.82 98.6008C124.396 98.4451 123.108 99.4768 122.953 100.917C122.791 102.351 123.82 103.643 125.257 103.799Z" fill="#82BB2C"/>
<path d="M76.7864 100.204C75.3625 100.048 74.0745 101.08 73.9192 102.52C73.7639 103.954 74.7929 105.246 76.2233 105.401C77.6472 105.557 78.9352 104.525 79.0905 103.085C79.2458 101.651 78.2167 100.359 76.7864 100.204Z" fill="#82BB2C"/>
<path d="M117.6 109.97C119.024 110.125 120.312 109.094 120.467 107.653C120.623 106.219 119.594 104.928 118.163 104.772C116.739 104.616 115.451 105.648 115.296 107.088C115.141 108.523 116.17 109.814 117.6 109.97Z" fill="#82BB2C"/>
<path d="M124.493 110.735C125.917 110.891 127.205 109.859 127.36 108.419C127.516 106.985 126.487 105.693 125.056 105.538C123.626 105.382 122.344 106.414 122.189 107.854C122.034 109.282 123.063 110.573 124.493 110.735Z" fill="#82BB2C"/>
<path d="M76.0227 107.134C74.5988 106.978 73.3109 108.01 73.1555 109.45C73.0002 110.885 74.0293 112.176 75.4596 112.332C76.8835 112.487 78.1715 111.456 78.3268 110.015C78.4886 108.587 77.4595 107.296 76.0227 107.134Z" fill="#82BB2C"/>
<path d="M75.2654 114.064C73.8415 113.908 72.5535 114.94 72.3982 116.381C72.2429 117.815 73.2719 119.106 74.7023 119.262C76.1262 119.418 77.4142 118.386 77.5695 116.945C77.7313 115.518 76.7022 114.22 75.2654 114.064Z" fill="#82BB2C"/>
<path d="M87.5497 129.45C86.1258 129.294 84.8378 130.326 84.6825 131.766C84.5272 133.2 85.5562 134.492 86.9866 134.647C88.4105 134.803 89.6985 133.771 89.8538 132.331C90.0091 130.897 88.9801 129.605 87.5497 129.45Z" fill="#82BB2C"/>
<path d="M93.8796 135.413C95.3035 135.569 96.5914 134.537 96.7468 133.096C96.9021 131.662 95.873 130.371 94.4426 130.215C93.0123 130.06 91.7308 131.091 91.5755 132.532C91.4137 133.96 92.4427 135.251 93.8796 135.413Z" fill="#82BB2C"/>
<path d="M86.7925 136.38C85.3686 136.224 84.0806 137.256 83.9253 138.696C83.77 140.131 84.799 141.422 86.2294 141.578C87.6598 141.733 88.9413 140.702 89.0966 139.261C89.2519 137.82 88.2229 136.536 86.7925 136.38Z" fill="#82BB2C"/>
<path d="M113.808 144.621C115.231 144.777 116.519 143.745 116.675 142.304C116.83 140.87 115.801 139.579 114.371 139.423C112.94 139.268 111.659 140.299 111.503 141.74C111.348 143.174 112.377 144.465 113.808 144.621Z" fill="#82BB2C"/>
<path d="M121.277 140.189C119.853 140.033 118.565 141.065 118.409 142.506C118.254 143.94 119.283 145.231 120.713 145.387C122.137 145.542 123.425 144.511 123.581 143.07C123.736 141.636 122.707 140.345 121.277 140.189Z" fill="#82BB2C"/>
<path d="M106.72 145.594C105.297 145.439 104.009 146.47 103.853 147.911C103.698 149.345 104.727 150.636 106.157 150.792C107.581 150.948 108.869 149.916 109.025 148.475C109.186 147.041 108.157 145.75 106.72 145.594Z" fill="#82BB2C"/>
<path d="M105.963 152.525C104.539 152.369 103.251 153.401 103.096 154.841C102.941 156.275 103.97 157.567 105.4 157.722C106.824 157.878 108.112 156.846 108.267 155.406C108.423 153.978 107.394 152.68 105.963 152.525Z" fill="#82BB2C"/>
<path d="M98.4749 158.709C97.051 158.553 95.763 159.585 95.6077 161.025C95.4523 162.459 96.4814 163.751 97.9118 163.906C99.3421 164.062 100.624 163.03 100.779 161.59C100.934 160.156 99.9052 158.864 98.4749 158.709Z" fill="#82BB2C"/>
<path d="M76.864 163.342C75.4401 163.186 74.1522 164.218 73.9968 165.658C73.8415 167.092 74.8706 168.384 76.3009 168.54C77.7248 168.695 79.0128 167.664 79.1681 166.223C79.3235 164.789 78.2944 163.498 76.864 163.342Z" fill="#82BB2C"/>
<path d="M76.1068 170.266C74.6829 170.11 73.395 171.142 73.2396 172.582C73.0843 174.016 74.1134 175.308 75.5437 175.463C76.9676 175.619 78.2556 174.587 78.4109 173.147C78.5663 171.713 77.5372 170.428 76.1068 170.266Z" fill="#82BB2C"/>
<path d="M75.3432 177.202C73.9193 177.047 72.6313 178.078 72.476 179.519C72.3206 180.953 73.3497 182.244 74.7801 182.4C76.204 182.556 77.4919 181.524 77.6473 180.084C77.8091 178.656 76.78 177.358 75.3432 177.202Z" fill="#82BB2C"/>
<path d="M79.1422 191.134C77.7183 190.979 76.4304 192.01 76.275 193.451C76.1197 194.885 77.1488 196.176 78.5791 196.339C80.003 196.494 81.291 195.463 81.4463 194.022C81.6017 192.581 80.5726 191.29 79.1422 191.134Z" fill="#82BB2C"/>
<path d="M86.799 200.109C85.3751 199.953 84.0871 200.985 83.9318 202.425C83.7764 203.859 84.8055 205.151 86.2359 205.313C87.6598 205.469 88.9477 204.437 89.1031 202.996C89.2649 201.562 88.2358 200.264 86.799 200.109Z" fill="#82BB2C"/>
<path d="M93.7047 200.868C92.2808 200.712 90.9929 201.744 90.8375 203.184C90.6822 204.619 91.7113 205.91 93.1416 206.066C94.5655 206.221 95.8535 205.19 96.0088 203.749C96.1642 202.321 95.1351 201.03 93.7047 200.868Z" fill="#82BB2C"/>
<path d="M100.598 201.634C99.1738 201.478 97.8858 202.51 97.7305 203.95C97.5751 205.384 98.6042 206.676 100.035 206.831C101.458 206.987 102.746 205.955 102.902 204.515C103.057 203.074 102.028 201.789 100.598 201.634Z" fill="#82BB2C"/>
<path d="M91.2259 157.093C89.3749 156.885 87.7115 158.228 87.5044 160.091C87.2973 161.953 88.637 163.621 90.4881 163.829C92.3391 164.036 94.0025 162.693 94.2096 160.831C94.4103 158.968 93.077 157.301 91.2259 157.093Z" fill="#82BB2C"/>
<path d="M105.458 158.67C103.607 158.462 101.944 159.805 101.737 161.668C101.53 163.53 102.869 165.198 104.721 165.405C106.572 165.613 108.235 164.27 108.442 162.407C108.649 160.539 107.309 158.871 105.458 158.67Z" fill="#82BB2C"/>
<path d="M93.2 143.025C95.051 143.232 96.7144 141.889 96.9215 140.027C97.1286 138.164 95.7889 136.497 93.9378 136.289C92.0867 136.081 90.4234 137.425 90.2163 139.287C90.0092 141.149 91.3424 142.817 93.2 143.025Z" fill="#82BB2C"/>
<path d="M113.918 145.659C112.067 145.452 110.403 146.795 110.196 148.657C109.989 150.519 111.329 152.187 113.18 152.395C115.031 152.602 116.694 151.259 116.895 149.397C117.108 147.535 115.769 145.86 113.918 145.659Z" fill="#82BB2C"/>
<path d="M129.884 126.315C128.033 126.108 126.37 127.451 126.163 129.313C125.956 131.176 127.296 132.843 129.147 133.051C130.998 133.259 132.661 131.915 132.868 130.053C133.075 128.184 131.742 126.517 129.884 126.315Z" fill="#82BB2C"/>
<path d="M146.557 100.281C144.706 100.074 143.043 101.417 142.835 103.279C142.628 105.142 143.968 106.809 145.819 107.017C147.67 107.225 149.334 105.881 149.541 104.019C149.748 102.157 148.415 100.489 146.557 100.281Z" fill="#82BB2C"/>
<path d="M87.5756 153.122C88.1516 147.859 84.3718 143.122 79.1358 142.551C73.8933 141.973 69.1815 145.776 68.612 151.032C68.0359 156.295 71.8157 161.032 77.0517 161.603C82.2878 162.18 87.006 158.384 87.5756 153.122Z" fill="#82BB2C"/>
<path d="M112.073 120.975C112.649 115.712 108.863 110.975 103.633 110.404C98.3906 109.827 93.6788 113.629 93.1093 118.885C92.5332 124.148 96.313 128.885 101.549 129.456C106.792 130.034 111.497 126.231 112.073 120.975Z" fill="#82BB2C"/>
<path d="M83.7829 99.334C89.0254 99.9116 93.7371 96.109 94.3067 90.8529C94.8827 85.5903 91.1029 80.8533 85.8669 80.2823C80.6244 79.7047 75.9126 83.5073 75.3431 88.7634C74.7606 94.026 78.5468 98.7565 83.7829 99.334Z" fill="#82BB2C"/>
<path d="M87.5626 64.7086C92.8051 65.2861 97.5169 61.4835 98.0865 56.2274C98.6625 50.9648 94.8827 46.2278 89.6467 45.6568C84.4042 45.0793 79.6924 48.8818 79.1229 54.138C78.5468 59.4006 82.3331 64.1376 87.5626 64.7086Z" fill="#82BB2C"/>
<path d="M66.159 71.282C60.9165 70.7044 56.2047 74.507 55.6351 79.7631C55.0591 85.0257 58.8389 89.7627 64.0749 90.3338C69.3174 90.9113 74.0292 87.1087 74.5988 81.8526C75.1748 76.59 71.395 71.853 66.159 71.282Z" fill="#82BB2C"/>
<path d="M134.998 78.7184C129.755 78.1409 125.043 81.9435 124.474 87.1996C123.904 92.4622 127.684 97.1992 132.914 97.7702C138.156 98.3477 142.868 94.5451 143.437 89.289C144.013 84.0264 140.227 79.2894 134.998 78.7184Z" fill="#82BB2C"/>
<path d="M91.0641 185.113C91.433 181.764 89.0253 178.747 85.6921 178.377C82.3589 178.007 79.3558 180.427 78.9869 183.776C78.618 187.124 81.0257 190.142 84.3589 190.511C87.692 190.875 90.6952 188.461 91.0641 185.113Z" fill="#82BB2C"/>
<path d="M80.495 169.954C80.126 173.302 82.5337 176.32 85.8669 176.69C89.2001 177.06 92.2032 174.639 92.5721 171.291C92.941 167.943 90.5334 164.925 87.2002 164.555C83.867 164.185 80.8639 166.606 80.495 169.954Z" fill="#82BB2C"/>
<path d="M101.801 150.954C102.17 147.606 99.7628 144.589 96.4296 144.219C93.0964 143.849 90.0933 146.269 89.7243 149.618C89.3554 152.966 91.7631 155.983 95.0963 156.353C98.4295 156.723 101.433 154.303 101.801 150.954Z" fill="#82BB2C"/>
<path d="M75.5631 140.643C78.8963 141.013 81.8994 138.593 82.2683 135.244C82.6372 131.896 80.2296 128.879 76.8964 128.509C73.5632 128.139 70.56 130.559 70.1911 133.908C69.8222 137.262 72.2299 140.28 75.5631 140.643Z" fill="#82BB2C"/>
<path d="M104.047 143.751C107.4 143.751 110.118 141.02 110.118 137.652C110.118 134.284 107.4 131.552 104.047 131.552C100.695 131.552 97.9764 134.284 97.9764 137.652C97.9764 141.02 100.695 143.751 104.047 143.751Z" fill="#82BB2C"/>
<path d="M119.4 125.9C116.066 125.53 113.063 127.951 112.694 131.299C112.325 134.647 114.733 137.665 118.066 138.035C121.399 138.404 124.403 135.984 124.771 132.636C125.14 129.287 122.733 126.27 119.4 125.9Z" fill="#82BB2C"/>
<path d="M136.137 99.6066C132.804 99.2367 129.8 101.657 129.431 105.005C129.063 108.354 131.47 111.371 134.803 111.741C138.137 112.111 141.14 109.691 141.509 106.342C141.878 102.994 139.47 99.9765 136.137 99.6066Z" fill="#82BB2C"/>
<path d="M107.86 108.724C111.212 108.724 113.93 105.992 113.93 102.624C113.93 99.2562 111.212 96.5243 107.86 96.5243C104.507 96.5243 101.789 99.2562 101.789 102.624C101.789 105.998 104.507 108.724 107.86 108.724Z" fill="#82BB2C"/>
<path d="M96.3196 87.7576C95.9506 91.106 98.3583 94.1233 101.691 94.4932C105.025 94.8631 108.028 92.4427 108.397 89.0944C108.766 85.746 106.358 82.7286 103.025 82.3587C99.6916 81.9954 96.6885 84.4093 96.3196 87.7576Z" fill="#82BB2C"/>
<path d="M99.834 58.6933C99.465 62.0416 101.873 65.059 105.206 65.4289C108.539 65.7987 111.542 63.3783 111.911 60.03C112.28 56.6817 109.872 53.6643 106.539 53.2944C103.206 52.9245 100.203 55.3449 99.834 58.6933Z" fill="#82BB2C"/>
<path d="M115.516 96.0182C118.849 96.388 121.852 93.9676 122.221 90.6193C122.59 87.2709 120.183 84.2535 116.849 83.8837C113.516 83.5138 110.513 85.9342 110.144 89.2825C109.782 92.6309 112.183 95.6483 115.516 96.0182Z" fill="#82BB2C"/>
<path d="M77.2589 71.4442C76.89 74.7925 79.2976 77.8099 82.6308 78.1798C85.964 78.5497 88.9671 76.1293 89.336 72.7809C89.705 69.4326 87.2973 66.4152 83.9641 66.0453C80.6309 65.6755 77.6278 68.0959 77.2589 71.4442Z" fill="#82BB2C"/>
<path d="M69.6993 69.5364C73.0325 69.9063 76.0356 67.4859 76.4045 64.1376C76.7734 60.7892 74.3657 57.7718 71.0325 57.4019C67.6994 57.0321 64.6962 59.4525 64.3273 62.8008C63.9649 66.1492 66.3661 69.1666 69.6993 69.5364Z" fill="#82BB2C"/>
<path d="M40.1341 18.8896C36.801 18.5197 33.7978 20.9401 33.4289 24.2884C33.06 27.6368 35.4677 30.6542 38.8009 31.024C42.1341 31.3939 45.1372 28.9735 45.5061 25.6252C45.875 22.2768 43.4673 19.2594 40.1341 18.8896Z" fill="#82BB2C"/>
<path d="M20.0768 10.0515C16.7436 9.68163 13.7405 12.102 13.3716 15.4504C13.0026 18.7987 15.4103 21.8161 18.7435 22.186C22.0767 22.5559 25.0798 20.1355 25.4487 16.7871C25.8176 13.4388 23.41 10.4214 20.0768 10.0515Z" fill="#82BB2C"/>
<path d="M71.2074 55.7732C74.5406 56.1431 77.5437 53.7227 77.9126 50.3743C78.2815 47.026 75.8738 44.0086 72.5406 43.6387C69.2074 43.2688 66.2043 45.6892 65.8354 49.0376C65.4665 52.3859 67.8742 55.4033 71.2074 55.7732Z" fill="#82BB2C"/>
<path d="M91.0836 72.9691C90.7147 76.3175 93.1223 79.3349 96.4555 79.7047C99.7887 80.0746 102.792 77.6542 103.161 74.3059C103.53 70.9575 101.122 67.9401 97.7888 67.5702C94.4556 67.2004 91.4525 69.6208 91.0836 72.9691Z" fill="#82BB2C"/>
<path d="M111.905 75.2662C111.536 78.6146 113.943 81.632 117.277 82.0019C120.61 82.3717 123.613 79.9513 123.982 76.603C124.351 73.2546 121.943 70.2372 118.61 69.8674C115.27 69.4975 112.267 71.9179 111.905 75.2662Z" fill="#82BB2C"/>
<path d="M66.3726 104.149C69.7252 104.149 72.4435 101.417 72.4435 98.0492C72.4435 94.6814 69.7252 91.9495 66.3726 91.9495C63.02 91.9495 60.3016 94.6814 60.3016 98.0492C60.3016 101.417 63.02 104.149 66.3726 104.149Z" fill="#82BB2C"/>
<path d="M84.9091 127.516C88.2617 127.516 90.98 124.784 90.98 121.416C90.98 118.048 88.2617 115.317 84.9091 115.317C81.5565 115.317 78.8381 118.048 78.8381 121.416C78.8381 124.784 81.5565 127.516 84.9091 127.516Z" fill="#82BB2C"/>
<path d="M85.8022 113.227C89.1354 113.597 92.1385 111.177 92.5074 107.828C92.8763 104.48 90.4687 101.462 87.1355 101.093C83.8023 100.723 80.7992 103.143 80.4303 106.491C80.0614 109.84 82.469 112.857 85.8022 113.227Z" fill="#82BB2C"/>
<path d="M134.648 113.234C131.315 112.864 128.312 115.284 127.943 118.632C127.574 121.981 129.982 124.998 133.315 125.368C136.648 125.738 139.651 123.318 140.02 119.969C140.389 116.621 137.981 113.603 134.648 113.234Z" fill="#82BB2C"/>
<path d="M114.196 117.12C113.827 120.469 116.235 123.486 119.568 123.856C122.901 124.226 125.904 121.806 126.273 118.457C126.642 115.109 124.234 112.091 120.901 111.722C117.561 111.352 114.565 113.766 114.196 117.12Z" fill="#82BB2C"/>
<path d="M74.5858 184.152C72.8189 183.957 71.2268 185.242 71.0391 187.014C70.8449 188.792 72.1199 190.388 73.8868 190.583C75.6538 190.777 77.2459 189.493 77.4336 187.721C77.6278 185.943 76.3528 184.347 74.5858 184.152Z" fill="#82BB2C"/>
<path d="M87.2714 191.926C85.5045 191.731 83.9123 193.016 83.7246 194.788C83.5304 196.566 84.8055 198.162 86.5724 198.357C88.3328 198.551 89.9315 197.266 90.1192 195.501C90.3069 193.71 89.0318 192.114 87.2714 191.926Z" fill="#82BB2C"/>
<path d="M302.751 108.587C302.389 112.299 307.165 114.194 309.353 111.092C310.848 108.964 310.796 107.147 314.861 108.438L307.204 105.401C305.275 104.772 302.971 106.284 302.751 108.587Z" fill="#E8EBDE"/>
<path d="M307.204 105.401C313.644 107.951 317.857 110.683 320.517 107.056C322.977 103.688 320.097 99.0485 316.032 99.7104C310.628 100.599 313.573 107.478 307.204 105.401Z" fill="#E8EBDE"/>
</g>
<defs>
<clipPath id="clip0_8_5">
<rect width="466" height="207" fill="white"/>
</clipPath>
</defs>
</svg>
