<?xml version="1.0" encoding="utf-8"?>
<!-- Generator: Adobe Illustrator 28.0.0, SVG Export Plug-In . SVG Version: 6.00 Build 0)  -->
<svg version="1.1" id="Capa_1" xmlns="http://www.w3.org/2000/svg" xmlns:xlink="http://www.w3.org/1999/xlink" x="0px" y="0px"
	 viewBox="0 0 720 319" style="enable-background:new 0 0 720 319;" xml:space="preserve">
<style type="text/css">
	.st0{fill:#E8EBDE;}
	.st1{fill:#82BB2C;}
</style>
<g>
	<path class="st0" d="M289.52,90.68l3.13,1.76l24.18,36.91h-15.9l-25.05-39.17h-5.51v39.17h-12.53V41.47h30.06
		c12.53,0,21.42,3.51,25.81,11.17c2.01,3.51,3.13,7.91,3.13,13.3c0,4.77-1,8.66-2.88,11.93c-4.14,7.15-13.16,10.55-24.43,10.92
		V90.68L289.52,90.68z M270.35,53.39v25.48h19.29c5.88,0,10.39-1.88,12.65-5.78c1.13-1.88,1.76-4.27,1.76-7.03
		c0-2.77-0.5-4.9-1.5-6.65c-2.38-4.15-6.89-6.03-12.91-6.03L270.35,53.39L270.35,53.39z"/>
	<path class="st0" d="M381.59,102.6h-44.34c0.37,4.52,1.63,8.28,3.63,11.3c2.88,4.15,7.39,6.53,14.03,6.53
		c7.14,0,12.53-3.26,14.66-9.29h11.9c-2.13,11.55-12.91,19.97-26.31,19.97c-11.78,0-19.79-4.02-24.8-11.3
		c-3.63-5.27-5.51-12.06-5.51-20.21c0-8.15,2.5-15.57,6.14-20.84c5.13-7.41,13.27-11.42,22.79-11.42c17.66,0,27.8,11.17,27.8,30.26
		v5.02L381.59,102.6z M368.81,92.81c-0.37-9.79-5.76-15.06-15.03-15.06c-5.13,0-10.02,2.51-13.03,6.78
		c-1.5,2.26-2.51,5.02-3.13,8.28H368.81z"/>
	<path class="st0" d="M397.74,119.93c-3.63-5.27-5.51-12.31-5.51-20.71s1.88-15.44,5.51-20.71c4.89-7.15,12.53-11.17,21.8-11.17
		c11.03,0,18.67,6.15,22.05,18.07h1.88l-3.13-16.32V41.47h11.9v87.88h-11.9l3.13-16.32h-1.88c-3.38,11.93-11.03,18.07-22.05,18.07
		C410.27,131.1,402.63,127.08,397.74,119.93z M436.7,113.53c2.51-3.51,3.88-8.41,3.88-14.31c0-5.9-1.38-10.8-3.88-14.31
		c-3.13-4.52-8.01-6.9-14.16-6.9c-6.15,0-11.03,2.38-14.16,6.9c-2.51,3.51-3.88,8.41-3.88,14.31c0,5.9,1.38,10.8,3.88,14.31
		c3.13,4.52,8.01,6.9,14.16,6.9C428.69,120.43,433.57,118.05,436.7,113.53z"/>
	<path class="st1" d="M473.53,129.34V41.47h51.11v11.92h-38.58v25.86h37.33v11.92h-37.33v26.23h38.58v11.93H473.53z"/>
	<path class="st0" d="M316.82,244.48l-10.64-30.75h-33.2l-10.64,30.75h-13.28l31.07-87.88h18.92l31.07,87.88h-13.28H316.82z
		 M276.98,201.79h25.18l-10.77-31.14l-0.87-6.53h-1.88l-0.87,6.53L276.98,201.79z"/>
	<path class="st0" d="M342.63,244.48v-60.26h11.9l-3.13,16.32h1.88c3.13-11.55,8.9-18.07,18.92-18.07c9.02,0,16.66,6.15,16.66,18.07
		h1.88c3.13-13.3,10.39-18.07,19.42-18.07c13.15,0,20.16,8.16,20.16,23.85v38.16h-12.28V208.7c0-9.91-3.89-15.19-11.4-15.19
		c-9.27,0-14.41,7.41-14.41,19.08v31.89h-11.9v-35.77c0-9.91-4.89-15.19-11.65-15.19c-9.27,0-14.16,7.41-14.16,19.08v31.89h-11.9
		L342.63,244.48z"/>
	<path class="st0" d="M500.84,217.74h-44.34c0.37,4.52,1.63,8.28,3.64,11.3c2.88,4.15,7.39,6.53,14.03,6.53
		c7.14,0,12.53-3.26,14.66-9.29h11.9c-2.13,11.55-12.9,19.96-26.31,19.96c-11.78,0-19.79-4.02-24.8-11.3
		c-3.63-5.27-5.51-12.06-5.51-20.21c0-8.15,2.5-15.57,6.14-20.84c5.13-7.41,13.27-11.42,22.79-11.42c17.66,0,27.8,11.17,27.8,30.25
		v5.02L500.84,217.74z M488.06,207.95c-0.37-9.79-5.76-15.06-15.03-15.06c-5.13,0-10.02,2.52-13.03,6.78
		c-1.5,2.25-2.51,5.02-3.13,8.28H488.06z"/>
	<path class="st0" d="M515.86,244.48v-60.26h11.9l-3.5,17.33h2.01c2.38-12.8,9.15-19.08,18.04-19.08c11.4,0,16.79,7.41,16.79,19.71
		v12.43h-12.4v-8.28c0-8.79-3-12.56-9.27-12.56c-7.64,0-11.65,6.53-11.65,18.71v32.01L515.86,244.48L515.86,244.48z"/>
	<path class="st0" d="M574.61,244.48v-60.26h11.9v60.26H574.61z"/>
	<path class="st0" d="M607.05,234.94c-3.63-5.27-5.51-12.06-5.51-20.21c0-8.15,2.13-15.57,5.76-20.84
		c5.13-7.41,13.53-11.42,24.05-11.42c15.65,0,26.93,9.79,27.31,23.73h-11.9c-1.13-8.28-6.64-13.05-15.4-13.05
		c-6.02,0-10.64,2.38-13.66,6.65c-2.51,3.64-3.88,8.53-3.88,14.81c0,6.28,1.26,10.8,3.75,14.44c2.88,4.15,7.39,6.53,13.16,6.53
		c8.51,0,13.65-4.65,14.78-13.05h11.9c-0.37,14.19-11.28,23.73-27.06,23.73c-10.27,0-18.29-4.02-23.3-11.3V234.94z"/>
	<path class="st0" d="M720.29,204.93v39.55h-12.28l2.88-16.32h-1.88c-3,12.18-9.65,18.07-20.79,18.07c-5.38,0-10.02-1.88-13.28-5.15
		c-3-3.01-4.64-7.16-4.64-12.06c0-5.27,1.51-9.29,4.51-12.31c3.64-3.64,9.27-5.65,16.66-6.03l16.91-1.01v-4.77
		c0-7.15-4.39-11.8-13.66-11.8c-13.27,0-13.4,10.17-13.4,11.42v0.62h-12.28v-0.62c0-1.51,0.12-22.1,25.81-22.1
		c16.91,0,25.42,8.41,25.42,22.47L720.29,204.93z M708.39,219.12l-15.15,1.51c-4.01,0.37-6.89,1.38-8.65,3.14
		c-1.38,1.38-2.01,3.01-2.01,5.14c0,2.01,0.62,3.51,1.88,4.77c1.51,1.51,3.76,2.26,6.64,2.26
		C702.63,235.95,708.01,225.77,708.39,219.12z"/>
	<path class="st1" d="M68.92,18.08c-2.86-0.32-5.43,1.75-5.75,4.62c-0.32,2.87,1.75,5.44,4.61,5.76c2.86,0.32,5.43-1.75,5.75-4.62
		C73.85,20.97,71.78,18.4,68.92,18.08z"/>
	<path class="st1" d="M38.56,3.91c-2.86-0.32-5.43,1.75-5.75,4.62c-0.32,2.87,1.75,5.44,4.61,5.76c2.86,0.32,5.43-1.75,5.74-4.62
		C43.49,6.8,41.42,4.23,38.56,3.91z"/>
	<path class="st1" d="M5.48,0.27C2.63-0.04,0.05,2.03-0.26,4.89c-0.32,2.87,1.75,5.44,4.61,5.76c2.86,0.32,5.43-1.75,5.74-4.62
		C10.41,3.17,8.35,0.59,5.48,0.27z"/>
	<path class="st1" d="M75.97,51.33c-2.86-0.32-5.43,1.75-5.75,4.62c-0.32,2.87,1.75,5.44,4.61,5.76c2.86,0.32,5.43-1.75,5.75-4.62
		C80.89,54.22,78.83,51.65,75.97,51.33z"/>
	<path class="st1" d="M85.55,62.92c-2.86-0.32-5.43,1.75-5.75,4.62c-0.32,2.87,1.75,5.44,4.61,5.76c2.86,0.32,5.43-1.75,5.75-4.62
		C90.48,65.81,88.41,63.24,85.55,62.92z"/>
	<path class="st1" d="M91.74,107.1c2.86,0.32,5.43-1.75,5.75-4.62c0.32-2.87-1.75-5.44-4.61-5.76c-2.86-0.32-5.43,1.75-5.75,4.62
		C86.82,104.21,88.88,106.78,91.74,107.1z"/>
	<path class="st1" d="M124.11,67.72c2.86,0.32,5.43-1.75,5.75-4.62c0.32-2.87-1.75-5.44-4.61-5.76c-2.86-0.32-5.43,1.75-5.75,4.62
		C119.18,64.83,121.25,67.4,124.11,67.72z"/>
	<path class="st1" d="M114.02,195.63c2.86,0.32,5.43-1.75,5.75-4.62c0.32-2.87-1.75-5.44-4.61-5.76c-2.86-0.32-5.43,1.75-5.75,4.62
		C109.09,192.75,111.15,195.32,114.02,195.63z"/>
	<path class="st1" d="M149.84,167.08c2.86,0.32,5.43-1.75,5.74-4.62c0.32-2.87-1.75-5.44-4.61-5.76c-2.86-0.32-5.43,1.75-5.75,4.62
		C144.92,164.19,146.98,166.76,149.84,167.08z"/>
	<path class="st1" d="M198.74,118.94c2.86,0.32,5.43-1.75,5.74-4.62c0.32-2.87-1.75-5.44-4.61-5.76c-2.86-0.32-5.43,1.75-5.75,4.62
		C193.81,116.05,195.88,118.62,198.74,118.94z"/>
	<path class="st1" d="M157.03,80.82c2.86,0.32,5.43-1.75,5.75-4.62c0.32-2.87-1.75-5.44-4.61-5.76c-2.86-0.32-5.43,1.75-5.74,4.62
		C152.1,77.93,154.17,80.5,157.03,80.82z"/>
	<path class="st1" d="M16.62,2.7c-2.2-0.24-4.19,1.35-4.43,3.57c-0.24,2.21,1.35,4.2,3.56,4.44c2.2,0.24,4.19-1.35,4.43-3.57
		S18.83,2.94,16.62,2.7z"/>
	<path class="st1" d="M26.4,11.88c2.2,0.24,4.19-1.35,4.43-3.57c0.24-2.22-1.35-4.2-3.56-4.44c-2.2-0.24-4.19,1.35-4.43,3.57
		S24.19,11.64,26.4,11.88z"/>
	<path class="st1" d="M15.46,13.36c-2.2-0.24-4.19,1.35-4.43,3.57c-0.24,2.21,1.35,4.2,3.56,4.44c2.2,0.24,4.19-1.35,4.43-3.57
		C19.26,15.59,17.67,13.6,15.46,13.36z"/>
	<path class="st1" d="M47.43,16.88c-2.2-0.24-4.19,1.35-4.43,3.57c-0.24,2.21,1.35,4.2,3.56,4.44c2.2,0.24,4.19-1.35,4.43-3.57
		C51.23,19.12,49.64,17.12,47.43,16.88z"/>
	<path class="st1" d="M46.26,27.56c-2.2-0.24-4.19,1.35-4.43,3.57c-0.24,2.22,1.35,4.2,3.56,4.44c2.21,0.24,4.19-1.35,4.43-3.57
		C50.06,29.78,48.47,27.8,46.26,27.56z"/>
	<path class="st1" d="M76.18,49.77c2.2,0.24,4.19-1.35,4.43-3.57c0.24-2.21-1.35-4.2-3.56-4.44c-2.2-0.24-4.19,1.35-4.43,3.57
		C72.38,47.53,73.97,49.53,76.18,49.77z"/>
	<path class="st1" d="M117.72,25c2.2,0.24,4.19-1.35,4.43-3.57c0.24-2.21-1.35-4.2-3.56-4.44c-2.2-0.24-4.19,1.35-4.43,3.57
		C113.92,22.77,115.51,24.76,117.72,25z"/>
	<path class="st1" d="M127.86,25.71c2.2,0.24,4.19-1.35,4.43-3.57c0.24-2.22-1.35-4.2-3.56-4.44c-2.2-0.24-4.19,1.35-4.43,3.57
		C124.06,23.48,125.64,25.47,127.86,25.71z"/>
	<path class="st1" d="M95.15,73.47c2.2,0.24,4.19-1.35,4.43-3.57c0.24-2.22-1.35-4.2-3.56-4.44c-2.21-0.24-4.19,1.35-4.43,3.57
		C91.35,71.24,92.94,73.23,95.15,73.47z"/>
	<path class="st1" d="M92.81,94.83c2.2,0.24,4.19-1.35,4.43-3.57c0.24-2.22-1.35-4.2-3.56-4.44c-2.2-0.24-4.19,1.35-4.43,3.57
		C89.01,92.59,90.6,94.59,92.81,94.83z"/>
	<path class="st1" d="M178.95,92.93c2.2,0.24,4.19-1.35,4.43-3.57c0.24-2.21-1.35-4.2-3.56-4.44c-2.2-0.24-4.19,1.35-4.43,3.57
		C175.15,90.7,176.74,92.69,178.95,92.93z"/>
	<path class="st1" d="M178.07,104.22c2.2,0.24,4.19-1.35,4.43-3.57c0.24-2.22-1.35-4.2-3.56-4.44c-2.2-0.24-4.19,1.35-4.43,3.57
		C174.26,101.99,175.85,103.98,178.07,104.22z"/>
	<path class="st1" d="M189.44,105.01c2.2,0.24,4.19-1.35,4.43-3.57c0.24-2.22-1.35-4.2-3.56-4.44c-2.2-0.24-4.19,1.35-4.43,3.57
		C185.64,102.79,187.23,104.77,189.44,105.01z"/>
	<path class="st1" d="M166.23,113.72c2.2,0.24,4.19-1.35,4.43-3.57c0.24-2.21-1.35-4.2-3.56-4.44c-2.2-0.24-4.19,1.35-4.43,3.57
		C162.43,111.49,164.02,113.48,166.23,113.72z"/>
	<path class="st1" d="M165.07,124.4c2.2,0.24,4.19-1.35,4.43-3.57c0.24-2.21-1.35-4.2-3.56-4.44c-2.2-0.24-4.19,1.35-4.43,3.57
		C161.27,122.16,162.86,124.16,165.07,124.4z"/>
	<path class="st1" d="M227.84,142.12c2.2,0.24,4.19-1.35,4.43-3.57c0.24-2.22-1.35-4.2-3.56-4.44c-2.2-0.24-4.19,1.35-4.43,3.57
		C224.04,139.89,225.62,141.88,227.84,142.12z"/>
	<path class="st1" d="M226.67,152.81c2.2,0.24,4.19-1.35,4.43-3.57c0.24-2.21-1.35-4.2-3.56-4.44c-2.2-0.24-4.19,1.35-4.43,3.57
		C222.86,150.57,224.45,152.56,226.67,152.81z"/>
	<path class="st1" d="M150.89,155.27c2.2,0.24,4.19-1.35,4.43-3.57c0.24-2.21-1.35-4.2-3.56-4.44c-2.2-0.24-4.19,1.35-4.43,3.57
		C147.09,153.04,148.68,155.03,150.89,155.27z"/>
	<path class="st1" d="M182.87,158.79c2.2,0.24,4.19-1.35,4.43-3.57c0.24-2.22-1.35-4.2-3.56-4.44c-2.2-0.24-4.19,1.35-4.43,3.57
		C179.07,156.55,180.66,158.54,182.87,158.79z"/>
	<path class="st1" d="M193.53,159.96c2.2,0.24,4.19-1.35,4.43-3.57c0.24-2.22-1.35-4.2-3.56-4.44c-2.2-0.24-4.19,1.35-4.43,3.57
		C189.72,157.73,191.31,159.72,193.53,159.96z"/>
	<path class="st1" d="M118.64,154.42c-2.2-0.24-4.19,1.35-4.43,3.57c-0.24,2.21,1.35,4.2,3.56,4.44c2.2,0.24,4.19-1.35,4.43-3.57
		C122.44,156.65,120.85,154.66,118.64,154.42z"/>
	<path class="st1" d="M181.7,169.47c2.2,0.24,4.19-1.35,4.43-3.57c0.24-2.21-1.35-4.2-3.56-4.44c-2.2-0.24-4.19,1.35-4.43,3.57
		C177.9,167.24,179.49,169.23,181.7,169.47z"/>
	<path class="st1" d="M192.35,170.65c2.2,0.24,4.19-1.35,4.43-3.57c0.24-2.21-1.35-4.2-3.56-4.44c-2.21-0.24-4.19,1.35-4.43,3.57
		C188.55,168.41,190.14,170.4,192.35,170.65z"/>
	<path class="st1" d="M117.46,165.1c-2.2-0.24-4.19,1.35-4.43,3.57c-0.24,2.21,1.35,4.2,3.56,4.44c2.2,0.24,4.19-1.35,4.43-3.57
		C121.27,167.34,119.68,165.35,117.46,165.1z"/>
	<path class="st1" d="M116.29,175.78c-2.2-0.24-4.19,1.35-4.43,3.57c-0.24,2.21,1.35,4.2,3.56,4.44c2.2,0.24,4.19-1.35,4.43-3.57
		C120.1,178.02,118.51,176.02,116.29,175.78z"/>
	<path class="st1" d="M135.27,199.49c-2.2-0.24-4.19,1.35-4.43,3.57c-0.24,2.21,1.35,4.2,3.56,4.44c2.2,0.24,4.19-1.35,4.43-3.57
		C139.07,201.72,137.48,199.73,135.27,199.49z"/>
	<path class="st1" d="M145.05,208.68c2.2,0.24,4.19-1.35,4.43-3.57c0.24-2.21-1.35-4.2-3.56-4.44c-2.21-0.24-4.19,1.35-4.43,3.57
		C141.24,206.44,142.83,208.43,145.05,208.68z"/>
	<path class="st1" d="M134.1,210.17c-2.2-0.24-4.19,1.35-4.43,3.57c-0.24,2.21,1.35,4.2,3.56,4.44c2.21,0.24,4.19-1.35,4.43-3.57
		C137.9,212.39,136.31,210.41,134.1,210.17z"/>
	<path class="st1" d="M175.84,222.87c2.2,0.24,4.19-1.35,4.43-3.57c0.24-2.21-1.35-4.2-3.56-4.44c-2.21-0.24-4.19,1.35-4.43,3.57
		C172.04,220.64,173.63,222.63,175.84,222.87z"/>
	<path class="st1" d="M187.38,216.04c-2.2-0.24-4.19,1.35-4.43,3.57c-0.24,2.21,1.35,4.2,3.56,4.44c2.2,0.24,4.19-1.35,4.43-3.57
		C191.18,218.27,189.59,216.28,187.38,216.04z"/>
	<path class="st1" d="M164.89,224.37c-2.2-0.24-4.19,1.35-4.43,3.57c-0.24,2.21,1.35,4.2,3.56,4.44c2.2,0.24,4.19-1.35,4.43-3.57
		C168.7,226.6,167.11,224.61,164.89,224.37z"/>
	<path class="st1" d="M163.72,235.05c-2.2-0.24-4.19,1.35-4.43,3.57c-0.24,2.21,1.35,4.2,3.56,4.44c2.2,0.24,4.19-1.35,4.43-3.57
		C167.52,237.29,165.93,235.29,163.72,235.05z"/>
	<path class="st1" d="M152.15,244.58c-2.2-0.24-4.19,1.35-4.43,3.57c-0.24,2.21,1.35,4.2,3.56,4.44c2.21,0.24,4.19-1.35,4.43-3.57
		C155.95,246.81,154.36,244.82,152.15,244.58z"/>
	<path class="st1" d="M118.76,251.72c-2.2-0.24-4.19,1.35-4.43,3.57c-0.24,2.21,1.35,4.2,3.56,4.44c2.2,0.24,4.19-1.35,4.43-3.57
		C122.56,253.95,120.97,251.96,118.76,251.72z"/>
	<path class="st1" d="M117.59,262.39c-2.2-0.24-4.19,1.35-4.43,3.57c-0.24,2.21,1.35,4.2,3.56,4.44c2.2,0.24,4.19-1.35,4.43-3.57
		C121.39,264.62,119.8,262.64,117.59,262.39z"/>
	<path class="st1" d="M116.41,273.08c-2.2-0.24-4.19,1.35-4.43,3.57c-0.24,2.21,1.35,4.2,3.56,4.44c2.2,0.24,4.19-1.35,4.43-3.57
		C120.22,275.32,118.63,273.32,116.41,273.08z"/>
	<path class="st1" d="M122.28,294.55c-2.2-0.24-4.19,1.35-4.43,3.57c-0.24,2.21,1.35,4.2,3.56,4.45c2.2,0.24,4.19-1.35,4.43-3.57
		C126.08,296.78,124.49,294.79,122.28,294.55z"/>
	<path class="st1" d="M134.11,308.38c-2.2-0.24-4.19,1.35-4.43,3.57c-0.24,2.21,1.35,4.2,3.56,4.45c2.2,0.24,4.19-1.35,4.43-3.57
		C137.92,310.62,136.33,308.62,134.11,308.38z"/>
	<path class="st1" d="M144.78,309.55c-2.2-0.24-4.19,1.35-4.43,3.57c-0.24,2.21,1.35,4.2,3.56,4.44c2.2,0.24,4.19-1.35,4.43-3.57
		C148.58,311.79,146.99,309.8,144.78,309.55z"/>
	<path class="st1" d="M155.43,310.73c-2.2-0.24-4.19,1.35-4.43,3.57c-0.24,2.21,1.35,4.2,3.56,4.44c2.2,0.24,4.19-1.35,4.43-3.57
		C159.23,312.95,157.64,310.97,155.43,310.73z"/>
	<path class="st1" d="M140.95,242.09c-2.86-0.32-5.43,1.75-5.75,4.62c-0.32,2.87,1.75,5.44,4.61,5.76c2.86,0.32,5.43-1.75,5.75-4.62
		C145.87,244.98,143.81,242.41,140.95,242.09z"/>
	<path class="st1" d="M162.94,244.52c-2.86-0.32-5.43,1.75-5.75,4.62c-0.32,2.87,1.75,5.44,4.61,5.76c2.86,0.32,5.43-1.75,5.75-4.62
		C167.87,247.4,165.8,244.83,162.94,244.52z"/>
	<path class="st1" d="M144,220.41c2.86,0.32,5.43-1.75,5.75-4.62c0.32-2.87-1.75-5.44-4.61-5.76c-2.86-0.32-5.43,1.75-5.75,4.62
		C139.07,217.52,141.13,220.09,144,220.41z"/>
	<path class="st1" d="M176.01,224.47c-2.86-0.32-5.43,1.75-5.75,4.62c-0.32,2.87,1.75,5.44,4.61,5.76c2.86,0.32,5.43-1.75,5.74-4.62
		C180.94,227.36,178.87,224.78,176.01,224.47z"/>
	<path class="st1" d="M200.68,194.66c-2.86-0.32-5.43,1.75-5.75,4.62c-0.32,2.87,1.75,5.44,4.61,5.76c2.86,0.32,5.43-1.75,5.75-4.62
		C205.61,197.54,203.55,194.97,200.68,194.66z"/>
	<path class="st1" d="M226.44,154.54c-2.86-0.32-5.43,1.75-5.75,4.62c-0.32,2.87,1.75,5.44,4.61,5.76c2.86,0.32,5.43-1.75,5.75-4.62
		C231.37,157.43,229.31,154.86,226.44,154.54z"/>
	<path class="st1" d="M135.31,235.97c0.89-8.11-4.95-15.41-13.04-16.29c-8.1-0.89-15.38,4.97-16.26,13.07
		c-0.89,8.11,4.95,15.41,13.04,16.29C127.14,249.93,134.43,244.08,135.31,235.97z"/>
	<path class="st1" d="M173.16,186.43c0.89-8.11-4.96-15.41-13.04-16.29c-8.1-0.89-15.38,4.97-16.26,13.07
		c-0.89,8.11,4.95,15.41,13.04,16.29C165,200.39,172.27,194.53,173.16,186.43z"/>
	<path class="st1" d="M129.45,153.08c8.1,0.89,15.38-4.97,16.26-13.07c0.89-8.11-4.95-15.41-13.04-16.29
		c-8.1-0.89-15.38,4.97-16.26,13.07C115.51,144.9,121.36,152.19,129.45,153.08z"/>
	<path class="st1" d="M135.29,99.72c8.1,0.89,15.38-4.97,16.26-13.07c0.89-8.11-4.95-15.41-13.04-16.29
		c-8.1-0.89-15.38,4.97-16.26,13.07C121.36,91.54,127.21,98.84,135.29,99.72z"/>
	<path class="st1" d="M102.22,109.85c-8.1-0.89-15.38,4.97-16.26,13.07c-0.89,8.11,4.95,15.41,13.04,16.29
		c8.1,0.89,15.38-4.97,16.26-13.07C116.15,118.03,110.31,110.73,102.22,109.85z"/>
	<path class="st1" d="M208.58,121.31c-8.1-0.89-15.38,4.97-16.26,13.07c-0.88,8.11,4.96,15.41,13.04,16.29
		c8.1,0.89,15.38-4.97,16.26-13.07C222.51,129.49,216.66,122.19,208.58,121.31z"/>
	<path class="st1" d="M140.7,285.27c0.57-5.16-3.15-9.81-8.3-10.38c-5.15-0.57-9.79,3.16-10.36,8.32c-0.57,5.16,3.15,9.81,8.3,10.38
		C135.49,294.15,140.13,290.43,140.7,285.27z"/>
	<path class="st1" d="M124.37,261.91c-0.57,5.16,3.15,9.81,8.3,10.38c5.15,0.57,9.79-3.16,10.36-8.32c0.57-5.16-3.15-9.81-8.3-10.38
		C129.58,253.02,124.94,256.75,124.37,261.91z"/>
	<path class="st1" d="M157.29,232.63c0.57-5.16-3.15-9.81-8.3-10.38c-5.15-0.57-9.79,3.16-10.36,8.32
		c-0.57,5.16,3.15,9.81,8.3,10.38C152.08,241.52,156.72,237.79,157.29,232.63z"/>
	<path class="st1" d="M116.75,216.74c5.15,0.57,9.79-3.16,10.36-8.32c0.57-5.16-3.15-9.81-8.3-10.38
		c-5.15-0.57-9.79,3.16-10.36,8.32C107.88,211.53,111.6,216.18,116.75,216.74z"/>
	<path class="st1" d="M160.76,221.53c5.18,0,9.38-4.21,9.38-9.4c0-5.19-4.2-9.4-9.38-9.4c-5.18,0-9.38,4.21-9.38,9.4
		C151.38,217.32,155.58,221.53,160.76,221.53z"/>
	<path class="st1" d="M184.48,194.02c-5.15-0.57-9.79,3.16-10.36,8.32c-0.57,5.16,3.15,9.81,8.3,10.38
		c5.15,0.57,9.79-3.16,10.36-8.32C193.35,199.24,189.63,194.59,184.48,194.02z"/>
	<path class="st1" d="M210.34,153.5c-5.15-0.57-9.79,3.16-10.36,8.32c-0.57,5.16,3.15,9.81,8.3,10.38
		c5.15,0.57,9.79-3.16,10.36-8.32C219.21,158.72,215.49,154.07,210.34,153.5z"/>
	<path class="st1" d="M166.65,167.55c5.18,0,9.38-4.21,9.38-9.4c0-5.19-4.2-9.4-9.38-9.4c-5.18,0-9.38,4.21-9.38,9.4
		C157.27,163.35,161.47,167.55,166.65,167.55z"/>
	<path class="st1" d="M148.82,135.24c-0.57,5.16,3.15,9.81,8.3,10.38c5.15,0.57,9.79-3.16,10.36-8.32c0.57-5.16-3.15-9.81-8.3-10.38
		C154.03,126.36,149.39,130.08,148.82,135.24z"/>
	<path class="st1" d="M154.25,90.45c-0.57,5.16,3.15,9.81,8.3,10.38c5.15,0.57,9.79-3.16,10.36-8.32s-3.15-9.81-8.3-10.38
		C159.46,81.56,154.82,85.29,154.25,90.45z"/>
	<path class="st1" d="M178.48,147.97c5.15,0.57,9.79-3.16,10.36-8.32c0.57-5.16-3.15-9.81-8.3-10.38
		c-5.15-0.57-9.79,3.16-10.36,8.32C169.62,142.75,173.33,147.4,178.48,147.97z"/>
	<path class="st1" d="M119.37,110.1c-0.57,5.16,3.15,9.81,8.3,10.38c5.15,0.57,9.79-3.16,10.36-8.32c0.57-5.16-3.15-9.81-8.3-10.38
		C124.58,101.21,119.94,104.94,119.37,110.1z"/>
	<path class="st1" d="M107.69,107.16c5.15,0.57,9.79-3.16,10.36-8.32c0.57-5.16-3.15-9.81-8.3-10.38
		c-5.15-0.57-9.79,3.16-10.36,8.32C98.83,101.94,102.54,106.59,107.69,107.16z"/>
	<path class="st1" d="M62.01,29.11c-5.15-0.57-9.79,3.16-10.36,8.32s3.15,9.81,8.3,10.38c5.15,0.57,9.79-3.16,10.36-8.32
		C70.88,34.33,67.16,29.68,62.01,29.11z"/>
	<path class="st1" d="M31.02,15.49c-5.15-0.57-9.79,3.16-10.36,8.32c-0.57,5.16,3.15,9.81,8.3,10.38c5.15,0.57,9.79-3.16,10.36-8.32
		C39.89,20.71,36.17,16.06,31.02,15.49z"/>
	<path class="st1" d="M110.02,85.95c5.15,0.57,9.79-3.16,10.36-8.32s-3.15-9.81-8.3-10.38c-5.15-0.57-9.79,3.16-10.36,8.32
		C101.15,80.73,104.87,85.38,110.02,85.95z"/>
	<path class="st1" d="M140.73,112.45c-0.57,5.16,3.15,9.81,8.3,10.38s9.79-3.16,10.36-8.32c0.57-5.16-3.15-9.81-8.3-10.38
		C145.94,103.56,141.3,107.29,140.73,112.45z"/>
	<path class="st1" d="M172.9,115.99c-0.57,5.16,3.15,9.81,8.3,10.38c5.15,0.57,9.79-3.16,10.36-8.32c0.57-5.16-3.15-9.81-8.3-10.38
		C178.1,107.1,173.46,110.83,172.9,115.99z"/>
	<path class="st1" d="M102.55,160.5c5.18,0,9.38-4.21,9.38-9.4s-4.2-9.4-9.38-9.4s-9.38,4.21-9.38,9.4S97.37,160.5,102.55,160.5z"/>
	<path class="st1" d="M131.19,196.51c5.18,0,9.38-4.21,9.38-9.4c0-5.19-4.2-9.4-9.38-9.4c-5.18,0-9.38,4.21-9.38,9.4
		C121.81,192.3,126.01,196.51,131.19,196.51z"/>
	<path class="st1" d="M132.57,174.49c5.15,0.57,9.79-3.16,10.36-8.32s-3.15-9.81-8.3-10.38c-5.15-0.57-9.79,3.16-10.36,8.32
		C123.7,169.27,127.42,173.92,132.57,174.49z"/>
	<path class="st1" d="M208.04,174.5c-5.15-0.57-9.79,3.16-10.36,8.32c-0.57,5.16,3.15,9.81,8.3,10.38
		c5.15,0.57,9.79-3.16,10.36-8.32C216.91,179.72,213.19,175.07,208.04,174.5z"/>
	<path class="st1" d="M176.44,180.49c-0.57,5.16,3.15,9.81,8.3,10.38c5.15,0.57,9.79-3.16,10.36-8.32c0.57-5.16-3.15-9.81-8.3-10.38
		C181.64,171.6,177.01,175.32,176.44,180.49z"/>
	<path class="st1" d="M115.24,283.79c-2.73-0.3-5.19,1.68-5.48,4.41c-0.3,2.74,1.67,5.2,4.4,5.5c2.73,0.3,5.19-1.68,5.48-4.41
		C119.94,286.55,117.97,284.09,115.24,283.79z"/>
	<path class="st1" d="M134.84,295.77c-2.73-0.3-5.19,1.68-5.48,4.41c-0.3,2.74,1.67,5.2,4.4,5.5c2.72,0.3,5.19-1.68,5.48-4.4
		C139.53,298.52,137.56,296.06,134.84,295.77z"/>
	<path class="st0" d="M467.77,167.34c-0.56,5.72,6.82,8.64,10.2,3.86c2.31-3.28,2.23-6.08,8.51-4.09l-11.83-4.68
		C471.67,161.46,468.11,163.79,467.77,167.34z"/>
	<path class="st0" d="M474.65,162.43c9.95,3.93,16.46,8.14,20.57,2.55c3.8-5.19-0.65-12.34-6.93-11.32
		C479.94,155.03,484.49,165.63,474.65,162.43L474.65,162.43z"/>
</g>
</svg>
